<?xml version="1.0" encoding="iso-8859-1"?>
<!-- Generator: Adobe Illustrator 21.0.0, SVG Export Plug-In . SVG Version: 6.00 Build 0)  -->
<svg version="1.1" id="Capa_1" xmlns="http://www.w3.org/2000/svg" xmlns:xlink="http://www.w3.org/1999/xlink" x="0px" y="0px"
	 viewBox="0 0 512 512" style="enable-background:new 0 0 512 512;" xml:space="preserve">
<g transform="translate(0 -1)">
	<circle style="fill:#F29C1F;" cx="370.759" cy="257.004" r="141.241"/>
	<circle style="fill:#E4C05C;" cx="141.241" cy="257.004" r="141.241"/>
	<path style="fill:#F0C419;" d="M371.994,199.448c-2.227,7.306-1.758,15.169,1.324,22.157c1.441,1.784,3.375,3.104,5.561,3.796
		c12.623,5.297,36.723,5.914,39.812,23.128c1.589,9.092-4.855,17.479-5.297,26.571c0.882,5.994,0.971,12.079,0.265,18.097
		c-2.018,4.303-5.625,7.657-10.063,9.357c-9.092,4.855-16.861,11.917-26.041,16.596c-9.104,2.906-17.797,6.97-25.865,12.094
		c-2.85,2.518-6.526,3.9-10.328,3.884c-3.835-0.029-7.294-2.311-8.828-5.826c-3.531-9.092,8.21-18.097,10.152-26.483
		c1.424-5.871,0.865-12.047-1.589-17.567c-4.679-10.24-15.89-14.477-20.657-24.188c-3.423-8.744-3.104-18.51,0.883-27.012
		c4.414-11.476,13.153-24.011,10.328-36.811c-1.952-6.509-5.718-12.327-10.858-16.772c-5.826-5.826-10.946-12.535-17.037-17.92
		c-6.664-4.862-11.138-12.159-12.447-20.303l-0.971-1.324c53.114-36.822,124.446-32.896,173.197,9.534
		c-10.681,17.567-39.371,22.422-57.644,26.483C391.857,179.939,377.115,184.53,371.994,199.448z"/>
	<g>
		<path style="fill:#B19046;" d="M93.934,195.211c-2.579,0.002-5.03-1.123-6.709-3.081l-14.477-16.896
			c-2.194-2.375-2.914-5.759-1.878-8.821c1.037-3.062,3.665-5.313,6.85-5.866c3.185-0.553,6.419,0.679,8.428,3.212l14.486,16.878
			c2.244,2.617,2.76,6.301,1.32,9.434C100.514,193.203,97.382,195.211,93.934,195.211z"/>
		<path style="fill:#B19046;" d="M79.448,353.348c-3.448,0-6.58-2.008-8.02-5.14c-1.44-3.133-0.925-6.817,1.32-9.434l14.477-16.896
			c3.205-3.556,8.66-3.909,12.297-0.797c3.637,3.113,4.13,8.557,1.112,12.272l-14.486,16.887
			C84.476,352.206,82.028,353.342,79.448,353.348z"/>
		<path style="fill:#B19046;" d="M188.548,195.211c-3.448,0-6.58-2.008-8.02-5.14s-0.925-6.817,1.32-9.434l14.486-16.887
			c2.009-2.533,5.242-3.765,8.428-3.212c3.185,0.553,5.813,2.804,6.85,5.866c1.037,3.062,0.317,6.447-1.878,8.821l-14.477,16.896
			C193.58,194.082,191.129,195.211,188.548,195.211z"/>
		<path style="fill:#B19046;" d="M203.034,353.348c-2.577-0.002-5.025-1.131-6.7-3.09l-14.486-16.887
			c-3.018-3.716-2.525-9.16,1.112-12.272s9.092-2.759,12.297,0.797l14.477,16.896c2.233,2.618,2.742,6.294,1.303,9.42
			C209.599,351.337,206.475,353.342,203.034,353.348z"/>
		<path style="fill:#B19046;" d="M203.034,265.832H79.448c-4.875,0-8.828-3.952-8.828-8.828s3.952-8.828,8.828-8.828h123.586
			c4.875,0,8.828,3.952,8.828,8.828S207.91,265.832,203.034,265.832z"/>
	</g>
	<path style="fill:#F0C419;" d="M511.912,260.359c-1.111,49.216-27.813,94.289-70.444,118.908c-0.049-5.1,0.756-10.173,2.383-15.007
		c3.54-10.869,5.444-22.204,5.65-33.633c-1.397-8.859-1.427-17.88-0.088-26.748c3.122-8.31,9.545-14.957,17.743-18.361
		L511.912,260.359z"/>
	<g>
		<path style="fill:#F9EAB0;" d="M41.578,261.294l-19.633,35.31c-1.557,2.801-4.511,4.538-7.715,4.537H8.828l-1.589,0.53
			c-9.651-28.996-9.651-60.339,0-89.335l1.589,0.53h5.402c3.205,0,6.158,1.737,7.715,4.537l19.633,35.31
			C43.061,255.382,43.061,258.627,41.578,261.294z"/>
		<path style="fill:#F9EAB0;" d="M109.639,137.973L90.218,173.01c-1.557,2.807-4.514,4.548-7.724,4.546H44.138
			c-3.225-0.001-6.194-1.761-7.742-4.59l-3.575-6.532c18.643-22.348,43.742-38.381,71.857-45.903l4.935,8.828
			C111.117,132.03,111.127,135.291,109.639,137.973z"/>
		<path style="fill:#F9EAB0;" d="M109.63,384.616l-4.935,8.828c-28.114-7.522-53.213-23.556-71.857-45.903l3.575-6.532
			c1.554-2.81,4.513-4.555,7.724-4.555h38.303c3.21-0.002,6.167,1.739,7.724,4.546l19.421,35.037
			C111.083,378.695,111.1,381.94,109.63,384.616z"/>
		<path style="fill:#F9EAB0;" d="M282.483,257.004c0.008,15.182-2.436,30.265-7.239,44.668l-1.589-0.53h-5.402
			c-3.205,0-6.158-1.737-7.715-4.537l-19.633-35.31c-1.484-2.668-1.484-5.913,0-8.58l19.633-35.31
			c1.557-2.801,4.511-4.538,7.715-4.537h5.402l1.589-0.53C280.047,226.739,282.491,241.822,282.483,257.004z"/>
		<path style="fill:#F9EAB0;" d="M249.644,166.433l-3.575,6.532c-1.545,2.824-4.505,4.583-7.724,4.59h-38.321
			c-3.21,0.002-6.167-1.739-7.724-4.546l-19.421-35.037c-1.484-2.668-1.484-5.913,0-8.58l4.935-8.828
			C205.914,128.082,231.003,144.103,249.644,166.433z"/>
		<path style="fill:#F9EAB0;" d="M249.644,347.575c-18.643,22.348-43.742,38.381-71.857,45.903l-4.935-8.828
			c-1.484-2.668-1.484-5.913,0-8.58l19.421-35.037c1.552-2.829,4.524-4.586,7.751-4.582h38.321c3.225,0.001,6.194,1.761,7.742,4.59
			L249.644,347.575z"/>
		<path style="fill:#F9EAB0;" d="M160.565,301.142h-38.647c-3.208,0.003-6.165-1.734-7.724-4.537l-19.615-35.31
			c-1.484-2.668-1.484-5.913,0-8.58l19.615-35.31c1.559-2.804,4.516-4.541,7.724-4.537h38.647c3.208-0.003,6.165,1.734,7.724,4.537
			l19.615,35.31c1.484,2.668,1.484,5.913,0,8.58l-19.615,35.31C166.73,299.408,163.773,301.145,160.565,301.142z"/>
	</g>
</g>
<g>
</g>
<g>
</g>
<g>
</g>
<g>
</g>
<g>
</g>
<g>
</g>
<g>
</g>
<g>
</g>
<g>
</g>
<g>
</g>
<g>
</g>
<g>
</g>
<g>
</g>
<g>
</g>
<g>
</g>
</svg>
